<svg xmlns="http://www.w3.org/2000/svg" aria-hidden="true" style="position:absolute;width:0;height:0;overflow:hidden">
  <defs>
    <symbol id="icon-arrow-left" viewBox="0 0 32 32">
      <path d="M23.4 32a1.585 1.585 0 0 1-1.054-.419L7.545 16.997a1.465 1.465 0 0 1 0-2.078L22.346.335a1.512 1.512 0 0 1 2.01.098 1.466 1.466 0 0 1 .099 1.981L10.69 15.959l13.765 13.545a1.465 1.465 0 0 1 0 2.078 1.58 1.58 0 0 1-1.055.419z"/>
    </symbol>
    <symbol id="icon-arrow-right" viewBox="0 0 32 32">
      <path d="M8.6 32a1.59 1.59 0 0 0 1.055-.419l14.801-14.584a1.465 1.465 0 0 0 0-2.078L9.655.335a1.512 1.512 0 0 0-2.01.098 1.466 1.466 0 0 0-.099 1.981l13.765 13.545L7.546 29.504a1.465 1.465 0 0 0 0 2.078 1.58 1.58 0 0 0 1.055.419z"/>
    </symbol>
    <symbol id="icon-check-mark" viewBox="0 0 32 32">
      <path stroke-linecap="round" stroke-linejoin="round" stroke-width="2.286" d="m30.286 4.571-20 22.857-8.571-8.571"/>
    </symbol>
    <symbol id="icon-close-menu" viewBox="0 0 32 32">
      <path stroke-linecap="round" stroke-linejoin="round" stroke-width="3.556" d="M29.333 29.333 2.666 2.666m26.667.001L2.666 29.334"/>
    </symbol>
    <symbol id="icon-email" viewBox="0 0 32 32">
      <path d="M28.8 3.765H3.2C1.44 3.765.016 5.141.016 6.824L0 25.177c0 1.682 1.44 3.059 3.2 3.059h25.6c1.76 0 3.2-1.376 3.2-3.059V6.824c0-1.682-1.44-3.059-3.2-3.059zm-.64 6.5-11.312 6.76a1.681 1.681 0 0 1-1.696 0L3.84 10.265c-.16-.086-.301-.202-.413-.342s-.193-.299-.239-.47c-.046-.17-.055-.348-.026-.522s.093-.34.191-.489a1.33 1.33 0 0 1 .377-.378 1.41 1.41 0 0 1 1.55-.002L16 14.47l10.72-6.408a1.413 1.413 0 0 1 1.551.002c.151.1.279.229.377.378s.162.316.191.489a1.26 1.26 0 0 1-.265.992 1.355 1.355 0 0 1-.413.342z"/>
    </symbol>
    <symbol id="icon-facebook" viewBox="0 0 32 32">
      <path d="M16 .376C7.373.376.314 7.419.314 16.094c0 7.843 5.741 14.353 13.239 15.529v-10.98H9.569v-4.549h3.984v-3.467c0-3.937 2.337-6.102 5.929-6.102 1.71 0 3.498.298 3.498.298v3.875h-1.976c-1.945 0-2.557 1.208-2.557 2.447v2.949h4.361l-.706 4.549h-3.655v10.98a15.688 15.688 0 0 0 13.239-15.53C31.686 7.418 24.627.375 16 .375z"/>
    </symbol>
    <symbol id="icon-instagram" viewBox="0 0 32 32">
      <path d="M9.412.314h13.176c5.02 0 9.098 4.078 9.098 9.098v13.176a9.098 9.098 0 0 1-9.098 9.098H9.412c-5.02 0-9.098-4.078-9.098-9.098V9.412A9.098 9.098 0 0 1 9.412.314zm-.314 3.137a5.646 5.646 0 0 0-5.647 5.647v13.804a5.643 5.643 0 0 0 5.647 5.647h13.804a5.646 5.646 0 0 0 5.647-5.647V9.098a5.643 5.643 0 0 0-5.647-5.647H9.098zm15.137 2.353a1.961 1.961 0 1 1 0 3.92 1.961 1.961 0 0 1 0-3.919zM16 8.157a7.843 7.843 0 1 1 0 15.686 7.843 7.843 0 0 1 0-15.686zm0 3.137a4.704 4.704 0 0 0-3.328 8.034A4.708 4.708 0 0 0 20.706 16 4.702 4.702 0 0 0 16 11.294z"/>
    </symbol>
    <symbol id="icon-logo" viewBox="0 0 32 32">
      <path d="M28.315 6.422 18.618 1.13C17.913.745 16.983.533 16 .533s-1.913.212-2.618.597L3.685 6.422c-1.468.801-2.618 2.684-2.618 4.286v10.586c0 1.602 1.15 3.485 2.618 4.286l9.697 5.291c.705.385 1.635.597 2.618.597s1.913-.212 2.618-.597l9.697-5.293c1.468-.801 2.618-2.684 2.618-4.286V10.707c0-1.598-1.15-3.482-2.618-4.283zM4.226 24.69c-1.125-.614-2.076-2.17-2.076-3.398v-4.524c3.453-.257 5.498.608 8.052 1.694 2.298.978 5.062 2.152 9.577 2.784-.844.153-1.696.294-2.545.434-4.612.761-8.973 1.485-11.357 3.911l-1.651-.901zm14.567-9.207c-2.084.783-4.798 1.485-8.811 1.764-1.774-.745-3.464-1.375-5.677-1.52l7.374-6.969 7.115 6.725zm-.516-1.936 5.302-5.011 3.985 3.767c-2.294.197-3.9.966-5.68 1.822-.62.298-1.28.615-2.014.928l-1.593-1.506zm11.572 7.745c0 1.228-.95 2.784-2.076 3.398l-9.698 5.292c-.534.292-1.29.461-2.075.461s-1.542-.167-2.076-.46L6.84 26.116c2.187-2.042 6.272-2.716 10.582-3.427 4.858-.8 9.859-1.627 12.428-4.592l-.001 3.194zm0-5.109c-1.14 2.337-3.733 3.562-6.823 4.368-5.323-.365-8.46-1.408-11.032-2.458 5.258-.595 8.072-1.947 10.381-3.058 2.274-1.094 4.096-1.964 7.473-1.715v2.863zm0-3.891a17.715 17.715 0 0 0-.803-.039l-5.082-4.804a.564.564 0 0 0-.766 0l-5.684 5.373-5.451-5.151a.564.564 0 0 0-.766 0l-8.502 8.037c-.209.007-.422.017-.64.032v-5.032c0-1.228.951-2.785 2.076-3.398l9.698-5.292c.535-.292 1.292-.46 2.076-.46s1.542.167 2.076.46l9.698 5.292c1.125.614 2.076 2.17 2.076 3.398l-.003 1.583z"/>
    </symbol>
    <symbol id="icon-mob-menu" viewBox="0 0 32 32">
      <path stroke-linecap="round" stroke-miterlimit="10" stroke-width="3" d="M2 8.5h28m-28 8h28m-28 7h28"/>
    </symbol>
    <symbol id="icon-phone" viewBox="0 0 32 32">
      <path d="M22.017 0H9.983c-.997 0-1.954.383-2.659 1.065S6.223 2.672 6.223 3.636v24.727c0 .964.396 1.889 1.101 2.571s1.662 1.065 2.659 1.065h12.034c.997 0 1.954-.383 2.659-1.065s1.101-1.607 1.101-2.571V3.636c0-.964-.396-1.889-1.101-2.571S23.014 0 22.017 0zM16 30.546c-1.248 0-2.256-.975-2.256-2.182s1.008-2.182 2.256-2.182c1.249 0 2.256.974 2.256 2.182S17.248 30.546 16 30.546zm6.769-5.819H9.231V4.363h13.538v20.364z"/>
    </symbol>
    <symbol id="icon-place" viewBox="0 0 32 32">
      <path d="M16 0C9.756 0 4.706 5.008 4.706 11.2 4.706 19.6 16 32 16 32s11.294-12.4 11.294-20.8C27.294 5.008 22.244 0 16 0zm0 15.2c-1.07 0-2.096-.421-2.852-1.172s-1.181-1.768-1.181-2.828c0-1.061.425-2.078 1.181-2.828S14.93 7.2 16 7.2c1.07 0 2.096.421 2.852 1.172s1.181 1.768 1.181 2.828c0 1.061-.425 2.078-1.181 2.828S17.07 15.2 16 15.2z"/>
    </symbol>
    <symbol id="icon-star" viewBox="0 0 32 32">
      <path d="M15.247 6.173a.78.78 0 0 1 1.505 0l1.913 6.165c.106.342.41.573.753.573h6.189c.767 0 1.085 1.028.465 1.499l-5.007 3.81a.854.854 0 0 0-.288.927l1.913 6.165c.237.764-.598 1.399-1.218.927l-5.007-3.81a.762.762 0 0 0-.93 0l-5.007 3.81c-.62.472-1.455-.163-1.218-.927l1.913-6.165a.85.85 0 0 0-.288-.927l-5.007-3.81c-.62-.472-.301-1.499.465-1.499h6.189a.796.796 0 0 0 .753-.573l1.913-6.165z"/>
    </symbol>
    <symbol id="icon-telegram" viewBox="0 0 32 32">
      <path d="M15.991.314A15.684 15.684 0 0 0 1.499 9.998a15.69 15.69 0 0 0 3.4 17.095 15.684 15.684 0 0 0 17.095 3.4 15.692 15.692 0 0 0 9.684-14.492 15.692 15.692 0 0 0-4.594-11.092A15.68 15.68 0 0 0 15.992.315zm4.988 23.768a1.106 1.106 0 0 1-1.572.552l-4.259-3.31-2.733 2.522a.472.472 0 0 1-.447.061l.524-4.689.016.014.011-.093s7.663-6.977 7.975-7.274c.317-.296.212-.361.212-.361.019-.361-.566 0-.566 0L9.986 18.036l-4.227-1.44s-.649-.232-.711-.745c-.064-.508.731-.784.731-.784L22.59 8.388s1.382-.615 1.382.405l-2.993 15.288z"/>
    </symbol>
  </defs>
</svg>
