<svg xmlns="http://www.w3.org/2000/svg" width="40" height="40" fill="none">
  <path fill="#F7FBFB" d="M34.02 8.853 22.98 2.695C22.177 2.247 21.12 2 20 2s-2.177.247-2.98.695L5.98 8.853C4.31 9.786 3 11.977 3 13.841v12.32c0 1.864 1.309 4.055 2.98 4.987l11.04 6.158c.803.448 1.861.694 2.98.694s2.177-.247 2.98-.694l11.04-6.16c1.671-.933 2.98-3.124 2.98-4.988v-12.32c0-1.86-1.309-4.052-2.98-4.985ZM6.597 30.113c-1.28-.713-2.363-2.525-2.363-3.954v-5.265c3.93-.298 6.259.708 9.166 1.972 2.616 1.139 5.762 2.505 10.903 3.24-.96.179-1.93.343-2.897.505-5.25.885-10.215 1.728-12.93 4.551l-1.879-1.048Zm16.582-10.715c-2.372.911-5.462 1.728-10.03 2.053-2.02-.867-3.944-1.6-6.463-1.77l8.394-8.11 6.203 5.995 1.896 1.832Zm-.586-2.253 6.035-5.832 4.537 4.383c-2.611.23-4.44 1.124-6.466 2.12a53.41 53.41 0 0 1-2.293 1.081l-1.813-1.752Zm13.172 9.014c0 1.43-1.082 3.24-2.363 3.955l-11.04 6.159c-.607.34-1.468.536-2.362.536-.894 0-1.755-.194-2.363-.535l-8.065-4.5c2.49-2.377 7.14-3.161 12.046-3.989 5.53-.931 11.223-1.893 14.148-5.343v3.717Zm0-5.946c-1.298 2.72-4.25 4.146-7.767 5.083-6.06-.425-9.631-1.639-12.558-2.86 5.985-.693 9.189-2.266 11.818-3.558 2.589-1.273 4.663-2.286 8.507-1.997v3.332Zm0-4.528c-.313-.023-.62-.039-.914-.045l-5.786-5.592a.619.619 0 0 0-.436-.174.635.635 0 0 0-.436.174l-6.471 6.254-6.206-5.995a.62.62 0 0 0-.436-.175.635.635 0 0 0-.436.175L4.966 19.66c-.238.008-.481.02-.729.038v-5.856c0-1.43 1.082-3.24 2.363-3.955l11.04-6.16c.61-.34 1.47-.534 2.363-.534.892 0 1.755.195 2.363.535l11.04 6.159c1.28.715 2.363 2.526 2.363 3.955l-.004 1.843Z"/>
</svg>
